<?xml version="1.0" encoding="utf-8"?>
<!-- Generator: Adobe Illustrator 25.0.0, SVG Export Plug-In . SVG Version: 6.00 Build 0)  -->
<svg version="1.1" id="レイヤー_1" xmlns="http://www.w3.org/2000/svg" xmlns:xlink="http://www.w3.org/1999/xlink" x="0px"
	 y="0px" viewBox="0 0 960 180" style="enable-background:new 0 0 960 180;" xml:space="preserve">
<style type="text/css">
	.st0{enable-background:new    ;}
</style>
<g class="st0">
	<path d="M86.3,148.5c0-16.1,9.5-39.4,15.7-52.7l5.7-12c0.4-0.7,0.6-1.5,0.6-2.4c0-0.3,0-0.6-0.1-0.9c-0.4-2.7-0.6-5.3-0.6-8
		c0-20.2,10-41.1,21.5-52.7c7.9-7.9,17.4-12.3,28.6-12.9c0.6,0,1.1-0.1,1.7-0.1c6.2,0,11.5,2.6,16.3,6.8
		c9.6,8.6,11.4,19.1,11.4,31.1v2c-0.4,24.8-15.7,57.8-27.8,78.7c-10.1,17.6-20.5,33.3-38.3,44c-5.5,3.4-10.7,4.9-15.3,4.9
		c-10.5,0-18-8.2-19.3-22.5C86.3,150.7,86.3,149.7,86.3,148.5z M90.1,149.8c0,5.7,1.2,11.2,4.7,15.9c3,3.9,6.8,5.4,10.8,5.4
		c7.2,0,15.2-4.7,20.6-8.9c16.4-12.7,27.5-31.6,37.4-49.7c7.2-13.3,13.1-27.2,17.2-41.8c2.4-8.5,3.7-17.1,3.7-25.8
		c0-2.8-0.1-5.7-0.4-8.6c-0.9-9.3-5.3-16.7-12.5-22.4c-4-3.2-8.5-4.4-13.2-4.4c-3.2,0-6.5,0.6-9.8,1.5c-18,5.1-29.6,23.2-35.2,40
		c-2.3,7.1-3.8,14.3-3.8,21.6c0,1.5,0.1,2.9,0.2,4.4v0.5c0,0.3,0.1,0.6,0.5,0.8l5.8-10.9c4-7.1,8.8-13.7,14-20.1
		c1.4-1.6,3.5-4,5.7-4c0.7,0,1.4,0.3,2.1,0.8c1,0.8,1.4,1.7,1.4,2.7c0,1.8-1.3,3.8-2.3,5.2c-0.3,0.5-0.7,0.7-1,0.7
		c-0.7,0-1.4-1.1-1.8-1.1H134c-1.1,0.9-2,2.1-3,3.3c-7.7,9.6-13.8,20.1-19.2,31.1c-0.2,0.5-0.3,0.9-0.3,1.4c0,0.3,0,0.6,0.1,1
		c1,3.1,2.5,5.9,4.9,8.2c5.4,5.1,11.6,7.9,18.6,7.9c1.6,0,3.3-0.1,5-0.4c0.3-0.1,0.5-0.1,0.8-0.1c0.2,0,0.5,0,0.7,0.2
		c-1,0.8-3.5,1.4-6.4,1.4c-1.4,0-2.8-0.1-4.2-0.4c-9.5-1.7-16.8-6.4-20.9-15.4c-0.6,0.4-0.7,1-1,1.6c-7.1,14.9-13.4,28.2-17.2,44.6
		C90.9,140.4,90.1,145.1,90.1,149.8z"/>
	<path d="M172.9,147.1c-0.2-0.5-0.6-1-0.6-1.5v-0.2c0-1,0.3-2,0.6-2.9c3.7-10.1,8.1-21.6,12.3-31.5c10.2-24.4,27.8-56.5,36-66.2
		c1.2-1.1,2.4-1.6,3.4-1.6c1.4,0,2.4,1,2.4,2.4c0,0.5-0.1,1-0.3,1.5c-1,2.3-1.4,2.7-3.4,4.2c-0.8,0.6-3,1.4-3.5,2.2
		c-6.2,8.8-26.1,46.3-30.3,57.4c5.3-5.5,23.3-24.5,33.5-24.5c0.4,0,0.8,0,1.2,0.1c1.6,0.2,2.5,1.5,2.5,2.7c0,0.8-0.4,1.5-1.2,1.8
		c-0.3,0.1-0.5,0.1-0.8,0.1c-1.4,0-2.2-1.6-3.4-1.6c-0.1,0-0.3,0.1-0.4,0.1c-7.3,2.1-27.3,19.6-32.3,25.6c-1.1,1.3-1.7,2.5-1.7,3.2
		c0,0.6,0.4,1,1.2,1h0.2c12.8-1.4,40.4-8.9,53.8-13.2c0.4-0.1,0.9-0.2,1.2-0.2c0.5,0,0.9,0.1,1,0.3c0,0.2-0.5,0.6-1.9,1
		c-16.2,5-33,10.3-49.9,13.6c-5.4,1.1-7.7,0.6-9.2,3.8c-2.9,6.2-5,11.2-7.8,17.7c-0.5,1.2-0.6,2.5-1.1,3.6
		C174.2,146.5,173.4,146.7,172.9,147.1z"/>
	<path d="M299.2,113.1c0-1.8,0.1-3.6,0.1-5c0.1-1.4,0.2-2.8,0.3-4.7c-1.2,0.9-1.9,1.3-2.6,1.9c-2.5,2.3-14.5,19-19,24.3
		c-1,1.1-2.1,1.6-3.2,1.6c-2,0-3.8-1.7-3.8-4.1c0-0.3,0.1-0.5,0.1-0.8c0.8-6.8,13.6-26.2,13.6-28v-0.1c-7.6,2.5-29.1,25.6-40.6,28
		c-0.6,0.1-1.2,0.2-1.8,0.2c-3.1,0-5-2.1-5-5.6v-0.2c0.2-6.5,5-14.3,9.3-18.7c1.3-1.4,2.4-1.9,3.2-1.9c1,0,1.5,0.9,1.5,1.8
		c0,0.2,0,0.5-0.1,0.7c-0.2,0.8-0.9,1.3-1.4,2c-2.5,3.9-5.1,7.6-7.5,11.5c-0.9,1.4-1.6,3.6-1.6,5.4c0,1.7,0.6,3,2.4,3h0.6
		c6.5-0.7,28-19.7,33.2-23.6c2.7-1.9,5.9-4.5,8.1-4.5h0.4c0.2,0,0.4,0.1,0.5,0.1c1.1,0.3,1.4,1.2,1.4,2c0,0.5-0.1,0.9-0.2,1.3
		c-3.2,8.5-11.3,22.2-12,27c4.8-4.1,19.5-23.4,22.8-25.4c0.7-0.5,1.4-0.7,2-0.7c1.3,0,2.2,1.2,2.3,3.2v0.8c0,2-0.3,5.1-0.3,8.1
		c0,3.8,0.5,7.5,2.5,8.6c1.2,0.6,2.5,0.9,3.9,0.9c10.2,0,22.7-16.1,24-16.1h0.1c0.1,0,0.1,0.1,0.1,0.3s-0.1,0.5-0.3,0.7
		c-5.1,5.7-16,16.8-24.9,16.8c-1.5,0-2.9-0.3-4.2-1C299.7,121.2,299.2,117,299.2,113.1z M254.3,95.6c-0.8,0-1.2-0.6-1.2-1.3
		c0-0.8,0.5-1.9,1.2-2.6c0.5-0.5,0.9-1.1,1.7-1.1c0.4,0,1,0.1,1.7,0.6c0.4,0.3,0.8,0.8,0.8,1.4c0,0.9-0.8,2-3.2,2.8
		C254.9,95.5,254.6,95.6,254.3,95.6z"/>
	<path d="M329.2,117.8c-1.2,0-2.5-0.9-2.5-2.3c0-0.3,0.1-0.6,0.2-0.9c0.4-1.2,0.8-2.3,1.3-3.5c1.6-3.3,3.9-6.2,6.7-8.7
		c1.6-1.4,3.7-2.1,5.6-2.1c2.3,0,4.5,1,5.5,2.7c0.1,0.1,0.1,0.1,0.2,0.1c0.4,0,0.9-0.6,1.4-0.7c0.1,0,0.3-0.1,0.4-0.1
		c0.8,0,1.2,0.9,1.2,1.8c0,0.3,0,0.6-0.1,0.8c-0.7,2.2-5,9.5-5,13.6c0,1.6,0.7,2.7,2.6,2.7h0.1c13.6,0,31.1-14.5,32.6-15.1h0.1
		c0.1,0,0.1,0,0.1,0.1c0,0,0,0.1-0.1,0.2c-6.3,6.4-23.2,16.1-32.1,16.5h-0.6c-3.9,0-5.2-2.4-5.2-5.3c0-2.7,1-5.8,2.1-8
		c-3.5,2.3-10.3,7-13.7,8.1C329.7,117.8,329.5,117.8,329.2,117.8z M332.3,112.7c0,0.3,0.1,0.4,0.2,0.4s0.3-0.1,0.5-0.2
		c4.1-2.5,6.4-3.9,9.9-7.3c-0.6-1-1.4-1.4-2.2-1.4c-0.4,0-0.9,0.1-1.4,0.4c-2.2,1.1-5.4,4.6-6.5,6.6
		C332.7,111.3,332.3,112.2,332.3,112.7z"/>
	<path d="M376.8,125.5c-1.6,0-2.8-1.2-3-3.2v-1c0-2.1,0.4-4.6,1.1-6.4c2.4-6.8,2.7-7.3,7-13c1-1.3,2.3-2.4,3.5-3.4
		c0.7-0.5,1.5-0.7,2.2-0.7c0.8,0,1.4,0.2,1.8,0.7c0.3,0.4,0.4,0.8,0.4,1.3c0,1.6-1.5,3.8-3.2,4.3c-1.2,0.4-1.9,1.1-2.6,2.1
		c-3.4,4.8-3.1,4.3-5.5,9.8c-0.7,1.7-1.3,3.5-1.3,5.6v0.5c6.1-1.8,14.4-10,18.6-14.3c0.9-0.6,2-2,2.9-2.6c0.4-0.3,1-0.5,1.7-0.5
		c1.2,0,2.4,0.7,2.4,2c0,0.5-0.1,1.1-0.5,1.8c-2.1,3.2-7.1,9.5-7.1,18.8v0.3c0.1,2.2,1.1,3.4,2.8,3.4c0.6,0,1.1-0.1,1.8-0.3
		c9.4-3.2,17-13.6,19.1-22.7c0-0.1-1.6-1.2-1.6-4.2v-0.3c0.1-1.7,1.5-3.1,2.7-3.1c1.1,0,2,0.9,2,3.3c0,1.1-0.5,2.2-0.5,3.1
		c0,0.7,0.3,1.2,1,1.5c2.7,1.2,5.9,1.7,9,1.7c1.6,0,3.2-0.2,4.7-0.4c3.7-0.7,6.4-2.1,9.6-3.5c0.2-0.1,0.4-0.1,0.6-0.1
		c0.3,0,0.5,0.1,0.5,0.2c0,0.2-0.2,0.4-0.7,0.7c-4.7,2.7-9.7,4-14.9,4c-3.6,0-7.2-0.6-10.9-1.8c-2.5,9-10.5,20.3-19.9,23.2
		c-0.9,0.3-1.8,0.4-2.6,0.4c-2.7,0-4.9-1.5-5.2-4.6c0-0.6-0.1-1.3-0.1-1.9c0-8.1,4.1-14.3,4.8-15.7c-5.5,4.3-12.9,12.7-19.1,14.7
		C377.8,125.4,377.3,125.5,376.8,125.5z"/>
	<path d="M444,117.8c-1.2,0-2.5-0.9-2.5-2.3c0-0.3,0.1-0.6,0.2-0.9c0.4-1.2,0.8-2.3,1.3-3.5c1.6-3.3,3.9-6.2,6.7-8.7
		c1.6-1.4,3.7-2.1,5.6-2.1c2.3,0,4.5,1,5.5,2.7c0.1,0.1,0.1,0.1,0.2,0.1c0.4,0,0.9-0.6,1.4-0.7c0.1,0,0.3-0.1,0.4-0.1
		c0.8,0,1.2,0.9,1.2,1.8c0,0.3,0,0.6-0.1,0.8c-0.7,2.2-5,9.5-5,13.6c0,1.6,0.7,2.7,2.6,2.7h0.1c13.6,0,31.1-14.5,32.6-15.1h0.1
		c0.1,0,0.1,0,0.1,0.1c0,0,0,0.1-0.1,0.2c-6.3,6.4-23.2,16.1-32.1,16.5h-0.6c-3.9,0-5.2-2.4-5.2-5.3c0-2.7,1-5.8,2.1-8
		c-3.5,2.3-10.3,7-13.7,8.1C444.5,117.8,444.3,117.8,444,117.8z M447.1,112.7c0,0.3,0.1,0.4,0.2,0.4s0.3-0.1,0.5-0.2
		c4.1-2.5,6.4-3.9,9.9-7.3c-0.6-1-1.4-1.4-2.2-1.4c-0.4,0-0.9,0.1-1.4,0.4c-2.2,1.1-5.4,4.6-6.5,6.6
		C447.5,111.3,447.1,112.2,447.1,112.7z"/>
	<path d="M596.1,26.8c0.4-0.6,0.5-1,0.5-1.3c0-0.6-0.4-0.9-0.4-1.4c0-0.3,0.1-0.6,0.6-1.2c1.5-2,7.7-10.2,9.4-11.2
		c0.6-0.4,1.2-0.6,1.8-0.6c1.6,0,2.9,1.3,2.9,3.2v0.5c-0.1,1-0.6,1.9-1.2,2.8c-2,3.1-4,6.2-5.9,9.4c-10.2,16.2-19.3,33.1-27.6,50.3
		c-0.2,0.3-0.4,0.6-0.4,1c0,0.1,0.1,0.2,0.1,0.4c10.6-14.2,19-24.7,32.3-36.7c6.7-6.2,25.1-22.1,35.7-22.2h0.2
		c6.7,0,10.4,6.1,11,12.2c0.1,0.9,0.1,1.9,0.1,2.8c0,9.8-4.9,21.2-9.9,28.9c-12.6,19.2-29,34.4-49.6,44.8
		c-11.6,5.9-23.8,9.2-36.8,9.6c-0.5,0-1,0-1.5,0.3c-0.4,0.4-0.5,0.8-0.5,1.1c0,0.5,0.2,1,0.8,1.3c15.2,10,38.3,25.5,56.4,29.1
		c3,0.6,6,1,9,1c1.3,0,2.6-0.1,3.9-0.2c0.4,0,1-0.1,1.5-0.1c0.7,0,1.3,0.1,1.4,0.8v0.2c0,1.1-2.1,1.1-3.6,1.2
		c-1.4,0.1-2.8,0.2-4.1,0.2c-7.5,0-14.8-1.8-21.9-4.5c-12.5-4.8-24.3-11.2-35.7-18.3l-8.4-5.4c-0.5-0.3-0.9-0.5-1.1-0.5
		c-0.3,0-0.4,0.3-0.8,1.1c-4.6,10.9-9.1,21.8-12.7,33c-0.2,0.6-0.5,1.1-0.5,1.6c0,0.4,0.1,0.8,0.6,1.2c0.1,0.1,0.2,0.2,0.2,0.4
		c0,0.9-1.4,3-2.5,3c-0.1,0-0.2-0.1-0.3-0.1c-0.7-0.3-0.9-0.9-0.9-1.7s0.2-1.6,0.3-2.2c2-8.6,9.5-28.4,12.7-36.8
		c0.2-0.7,0.4-1.1,0.4-1.4c0-0.4-0.4-0.7-1.2-1.2c-3.5-2.1-7.9-5-11.7-6.3c-1.8-0.6-5.7-2.1-6.8-3.8c-0.3-0.4-0.4-1-0.4-1.5
		c0-1.3,0.7-2.5,2.4-2.5c0.9,0,2.2,0.4,3.8,1.6c4.6,3.3,9.9,4.5,15.4,4.9c0.5,0,0.8,0.1,1.1,0.1c0.9,0,1-0.4,1.6-1.7
		C565.8,86.2,581.7,50,596.1,26.8z M570,91.1c-1.6,2.4-8.1,17.3-9.7,20.7c-0.2,0.5-0.5,0.9-0.5,1.5v0.3c0.5,0.1,1,0.1,1.5,0.1
		c0.7,0,1.4,0,2.2-0.1c10.6-0.9,20.7-3.6,30.2-8.3c20.4-10.1,36.4-25,48.9-43.9c4.2-6.6,7.2-13.7,8.6-21.5c0.4-1.9,0.6-3.8,0.6-5.7
		c0-1.8-0.2-3.6-0.8-5.4c-1.6-4.5-4.3-6.1-7.3-6.1c-4.1,0-8.7,2.7-12.3,4.9C607.6,42.3,585.1,68.2,570,91.1z"/>
	<path d="M640.3,125.8c-5.2,0-7.3-3.9-7.3-7.9c0-1.6,0.3-3.2,0.9-4.6c2.9-7.1,8-12.2,15.2-15.2c1-0.5,1.9-0.6,2.7-0.6
		c2.1,0,3.2,1.5,3.2,3.2c0,1-0.3,2-0.9,2.8c-1,1.4-2,2.9-3.4,3.8c-2.8,1.9-5.9,3.6-8.9,5.3c-0.9,0.5-1.9,0.8-2.9,0.8
		c-0.6,0-1.2-0.1-1.9-0.3c-1.2,1.8-1.7,3.6-1.7,5.2c0,3.2,2.3,5.4,6.4,5.4c1.1,0,2.2-0.1,3.4-0.4c9.8-2.4,25.8-11.1,33.5-17
		c0.2-0.2,0.4-0.3,0.6-0.3c0.1,0,0.2,0.1,0.2,0.3c0,0.1-0.1,0.3-0.4,0.6c-7.2,6.3-27.8,18.4-38.1,18.9H640.3z M638.7,110.3
		c4.3-1.3,10.7-6.4,11.2-8.9C645.1,102.9,641.9,106.3,638.7,110.3z"/>
	<path d="M672.8,153.6c-4.7,0-7.5-2.7-7.5-7c0-2.4,0.9-5.4,2.8-8.6c6.9-11.8,21.1-19.8,33.2-24.1c-0.8-1.9-20.8,0.2-22.7-6.5
		c-0.1-0.4-0.2-0.9-0.2-1.3c0-8.2,17.4-21.4,24.4-21.4c0.3,0,0.6,0.1,0.8,0.1c2.1,0.3,4.6,2.2,5.2,4.2c0.1,0.2,0.1,0.4,0.1,0.7
		c0,1.5-1.2,4-2.8,4c-0.9,0-1.8-0.6-2.7-2.4c-0.3-0.7-1-1-2-1c-5.5,0-19.5,10-19.5,15.4v0.2c0.2,2.4,5.2,3.2,10.2,3.7
		c5.1,0.4,10.2,0.5,11.8,3.3c6.7-2.4,23.1-5.9,30.2-6.8c0.5-0.1,0.9-0.1,1.3-0.1c0.7,0,1.1,0.1,1.1,0.3c0,0.2-0.4,0.4-1.5,0.6
		c-6.2,1-23.4,4.8-29.7,7.5c-0.2,0.1-0.2,0.2-0.2,0.4c0,0.6,0.9,2.2,0.9,5.1c0,1.6-0.3,3.7-1.3,6.3c-4.3,10.9-14.1,21.6-25,25.9
		C677.1,153.1,674.8,153.6,672.8,153.6z M666.9,146.5c0,3.3,2.2,5,5.6,5c1.6,0,3.6-0.4,5.7-1.2c11-4.1,21.8-16.6,25.1-27.9
		c0.3-0.9,0.4-1.9,0.4-2.8c0-1.3-0.3-2.6-1.1-3.9c-10.6,3.4-27.1,12.9-33,23C667.7,141.9,666.9,144.5,666.9,146.5z"/>
	<path d="M733.7,127.8c-1.5,0-3.2-1.6-3.5-3.2c-0.3-1.1-0.4-2.3-0.4-3.4c0-0.6,0-1.2,0.1-1.7c1.1-6.4,5.5-15,10.5-18.9
		c1.2-1,2.9-1.6,4.5-1.6c2.4,0,4.7,1.4,4.7,5c0,0.6-0.1,1.2-0.2,1.8c-0.2,0.9-0.7,3-1,4.2c2.2,0.9,4.7,1.3,7.4,1.3
		c6.5,0,13.8-2.3,18.7-4.6c0.3-0.1,0.6-0.2,0.8-0.2c0.3,0,0.5,0.1,0.5,0.3c0,0.2-0.3,0.6-1.1,0.9c-3.4,1.7-11.2,4.2-18.1,4.6
		c-0.7,0-1.4,0.1-2.1,0.1c-2.6,0-5.1-0.3-6.7-1.2c-2.8,6-5.6,11.8-11.2,15.5C735.8,127.3,734.8,127.8,733.7,127.8L733.7,127.8z
		 M732.4,124.2c0,0.9,0.2,1.6,0.9,1.6c0.4,0,0.9-0.3,1.7-0.8c3.5-2.6,9-10.6,10.5-15.1c-1.4-1.3-2-2.4-2.8-4.5
		c-4.1,4.6-9.4,12.1-10.2,17.3C732.4,123.2,732.4,123.8,732.4,124.2z M744.7,104.4c0,1.3,0.9,2.7,1.6,3.4c0.5-1.6,1.1-3.1,1.1-4.5
		c-0.2-0.4-0.7-0.6-1.1-0.6c-0.7,0-1.5,0.4-1.6,1.3V104.4z"/>
	<path d="M770.3,135.5c0-8.5,9.2-19.8,10.3-23.9c0-0.2,0.1-0.4,0.1-0.6c0-2.7-5.7-2.5-8.2-4.2c-0.5-0.5-0.8-1.3-0.8-2.3
		c0-1.8,0.9-4.1,2.6-6.1c0.6-0.6,1.4-0.9,2.2-0.9c1.7,0,3.4,1.2,3.4,3.1c0,0.9-0.3,1.9-1.3,3c3.5,1.2,6.9,2.4,6.9,6.2
		c0,0.6,0,1.2-0.2,1.9c-0.6,3.2-12.8,16.3-12.8,24.9v0.6c0.2,2.2,1.3,3.9,3.7,4.5c0.4,0.1,0.9,0.2,1.4,0.2c11.7,0,40.2-30.4,48-34.8
		c0.7-0.4,1.4-0.7,2.1-1.1c0.2,0.2,0.3,0.4,0.4,0.5c-0.4,0.4-0.8,0.9-1.3,1.1c-12.2,7.6-37,35.6-49.6,35.6c-0.5,0-0.9,0-1.3-0.1
		c-3.3-0.6-4.5-2.4-5.2-4.6C770.4,137.6,770.3,136.6,770.3,135.5z"/>
	<path d="M792.1,68.3c-1.4,0-1.7-0.4-2-0.9c-0.1-0.2-0.2-0.5-0.2-0.7c0-0.7,0.5-1.5,2.4-2.1c2.8-1,5.5-1.2,8.4-1.2h5.5
		c10.5-0.4,32.3-1.5,42.9-1.8c1.6-0.1,1.9-0.6,2.6-1.9c1.3-2.3,8.5-15.5,10.5-17.7c0.8-0.9,1.8-1.6,2.9-1.6c0.8,0,1.6,0.3,2.4,1
		c0.2,0.2,0.3,0.4,0.3,0.7c0,0.8-0.7,1.9-1.4,2.9c-2.2,3.8-7.6,11.7-9.7,15c-0.3,0.5-0.5,0.8-0.5,1.1c0,0.3,0.3,0.4,1,0.4
		c2-0.1,5.1-0.1,8.9-0.1c17.9,0,51.3,0.7,60.9,1c2.5,0.1,5.7,0.2,8.2,0.4c1.1,0.2,1.5,0.6,1.5,1c0,0.7-0.9,1.4-1,1.4h-0.1
		c-0.7,0-2.9-0.9-3.4-1c-3.5-0.3-15-0.4-28.2-0.4c-19.9,0-43.6,0.3-48.7,0.5c-1.5,0-2.6,1.5-3.1,2.3c-11.1,20.2-34.5,61-40.7,82.2
		c-0.2,0.7-0.3,1.6-0.4,2.3c0.6,0.5,1.9,0.5,1.9,1.4c0,0.1,0,0.2-0.1,0.4c-0.4,0.9-1.5,1.8-2.5,1.8s-1.9-0.8-1.9-2.9
		c0-0.8,0.1-1.7,0.4-2.8c3.8-16.7,30.4-67.8,39.2-82.6c0.4-0.6,0.5-1,0.5-1.3c0-0.5-0.5-0.6-1.5-0.6c-15.3,0.8-35.7,0.6-52,3.5
		C793.8,68.2,792.8,68.3,792.1,68.3z"/>
</g>
</svg>
